<?xml version="1.0" ?><svg id="Layer_1" style="enable-background:new 0 0 66 66;" version="1.1" viewBox="0 0 66 66" xml:space="preserve" xmlns="http://www.w3.org/2000/svg" xmlns:xlink="http://www.w3.org/1999/xlink"><style type="text/css">
	.st0{fill:#D4EFFC;}
	.st1{fill:#A0DFFF;}
	.st2{fill:#364DEC;}
	.st3{fill:#FABF63;}
	.st4{fill:#F5B6A3;}
	.st5{fill:#26CD9D;}
	.st6{fill:#FFFFFF;}
</style><g><g><g><path class="st1" d="M65,54.46c0,1.52-1.23,2.75-2.75,2.75c-1.52,0-2.75-1.23-2.75-2.75c0-1.52,1.23-5.58,2.75-5.58     C63.77,48.88,65,52.94,65,54.46z"/></g><g><path class="st1" d="M62.25,62.02c-0.4,0-0.72-0.32-0.72-0.72v-6.09c0-0.4,0.32-0.72,0.72-0.72s0.72,0.32,0.72,0.72v6.09     C62.97,61.7,62.65,62.02,62.25,62.02z"/></g></g><g><g><path class="st1" d="M6.5,54.46c0,1.52-1.23,2.75-2.75,2.75C2.23,57.21,1,55.98,1,54.46c0-1.52,1.23-5.58,2.75-5.58     C5.27,48.88,6.5,52.94,6.5,54.46z"/></g><g><path class="st1" d="M3.75,62.02c-0.4,0-0.72-0.32-0.72-0.72v-6.09c0-0.4,0.32-0.72,0.72-0.72s0.72,0.32,0.72,0.72v6.09     C4.47,61.7,4.15,62.02,3.75,62.02z"/></g></g><g><g><rect class="st0" height="13.6" width="7.05" x="31.6" y="47.87"/></g><g><rect class="st0" height="13.6" width="7.05" x="42.96" y="47.87"/></g></g><g><rect class="st0" height="4.75" width="23.63" x="29.76" y="7.54"/></g><g><rect class="st0" height="4.75" width="23.63" x="29.76" y="15.48"/></g><g><rect class="st0" height="4.75" width="23.63" x="29.76" y="23.42"/></g><g><rect class="st0" height="4.75" width="23.63" x="29.76" y="31.35"/></g><g><rect class="st0" height="4.75" width="23.63" x="29.76" y="39.29"/></g><g><path class="st1" d="M56.15,3.81H27c-0.4,0-0.72,0.32-0.72,0.72v14.18h1.43V5.24h27.72v55.52h-1.08v1.43h1.8    c0.4,0,0.72-0.32,0.72-0.72V4.53C56.87,4.13,56.55,3.81,56.15,3.81z"/></g><g><polygon class="st0" points="9.14,22.74 11.14,22.26 11.14,61.47 9.14,61.47   "/></g><g><polygon class="st0" points="31.6,17.32 31.6,61.47 29.6,61.47 29.6,17.8   "/></g><g><path class="st2" d="M31.6,62.19H9.14c-0.4,0-0.72-0.32-0.72-0.72V22.74c0-0.33,0.23-0.62,0.55-0.7l22.46-5.42    c0.21-0.05,0.44,0,0.61,0.13c0.17,0.14,0.27,0.34,0.27,0.56v44.15C32.32,61.87,32,62.19,31.6,62.19z M9.86,60.76h21.02V18.24    L9.86,23.31V60.76z"/></g><g><path class="st2" d="M25.67,62.19H15.07c-0.4,0-0.72-0.32-0.72-0.72v-9.98c0-3.32,2.7-6.02,6.02-6.02s6.02,2.7,6.02,6.02v9.98    C26.39,61.87,26.07,62.19,25.67,62.19z M15.78,60.76h9.17v-9.26c0-2.53-2.06-4.59-4.59-4.59s-4.59,2.06-4.59,4.59V60.76z"/></g><g><g><rect class="st3" height="3.72" width="4.12" x="12.03" y="24.58"/></g><g><rect class="st3" height="3.72" width="4.12" x="18.31" y="24.58"/></g><g><rect class="st3" height="3.72" width="4.12" x="24.59" y="24.58"/></g></g><g><g><rect class="st3" height="3.72" width="4.12" x="12.03" y="29.91"/></g><g><rect class="st3" height="3.72" width="4.12" x="18.31" y="29.91"/></g><g><rect class="st3" height="3.72" width="4.12" x="24.59" y="29.91"/></g></g><g><g><rect class="st3" height="3.72" width="4.12" x="12.03" y="35.24"/></g><g><rect class="st3" height="3.72" width="4.12" x="18.31" y="35.24"/></g><g><rect class="st3" height="3.72" width="4.12" x="24.59" y="35.24"/></g></g><g><g><rect class="st3" height="3.72" width="4.12" x="12.03" y="40.56"/></g><g><rect class="st3" height="3.72" width="4.12" x="18.31" y="40.56"/></g><g><rect class="st3" height="3.72" width="4.12" x="24.59" y="40.56"/></g></g><g><path class="st3" d="M24.11,54.68c0,0.53-0.43,0.96-0.96,0.96c-0.53,0-0.96-0.43-0.96-0.96c0-0.53,0.44-0.96,0.96-0.96    C23.68,53.71,24.11,54.15,24.11,54.68z"/></g><g><path class="st2" d="M63.27,62.19H2.13c-0.4,0-0.72-0.32-0.72-0.72c0-0.4,0.32-0.72,0.72-0.72h61.13c0.4,0,0.72,0.32,0.72,0.72    C63.98,61.87,63.66,62.19,63.27,62.19z"/></g></g></svg>