<?xml version="1.0" ?><svg id="Icon" viewBox="0 0 64 64" xmlns="http://www.w3.org/2000/svg" xmlns:xlink="http://www.w3.org/1999/xlink"><defs><style>.cls-1{fill:url(#linear-gradient);}.cls-2{fill:url(#linear-gradient-2);}.cls-3{fill:url(#linear-gradient-3);}.cls-4{fill:url(#linear-gradient-4);}.cls-5{fill:#fff3e1;}</style><linearGradient gradientUnits="userSpaceOnUse" id="linear-gradient" x1="57.911" x2="47.186" y1="32" y2="32"><stop offset="0" stop-color="#a5d5a7"/><stop offset="1" stop-color="#66bb6a"/></linearGradient><linearGradient gradientUnits="userSpaceOnUse" id="linear-gradient-2" x1="57.792" x2="44.048" y1="16" y2="16"><stop offset="0" stop-color="#95c8ec"/><stop offset="1" stop-color="#57a0d7"/></linearGradient><linearGradient gradientUnits="userSpaceOnUse" id="linear-gradient-3" x1="15.851" x2="4.607" y1="32" y2="32"><stop offset="0" stop-color="#f37046"/><stop offset="1" stop-color="#e44c25"/></linearGradient><linearGradient gradientUnits="userSpaceOnUse" id="linear-gradient-4" x1="10.505" x2="47.931" y1="32" y2="32"><stop offset="0" stop-color="#fcb64d"/><stop offset="1" stop-color="#f78c1e"/></linearGradient></defs><path class="cls-1" d="M49.124,26.337h5.752a2,2,0,0,1,2,2v7.327a2,2,0,0,1-2,2H49.124a0,0,0,0,1,0,0V26.337A0,0,0,0,1,49.124,26.337Z"/><path class="cls-2" d="M49.124,10.337h5.752a2,2,0,0,1,2,2v7.327a2,2,0,0,1-2,2H49.124a0,0,0,0,1,0,0V10.337A0,0,0,0,1,49.124,10.337Z"/><path class="cls-3" d="M9.124,5a2,2,0,0,0-2,2V57a2,2,0,0,0,2,2h5.049V5Z"/><path class="cls-4" d="M47.124,5H14.173V59H47.124a2,2,0,0,0,2-2V7A2,2,0,0,0,47.124,5Z"/><circle class="cls-5" cx="31.649" cy="24.52" r="5.663"/><path class="cls-5" d="M31.648,34.54h0a9.713,9.713,0,0,1,9.713,9.713v.891a0,0,0,0,1,0,0H21.936a0,0,0,0,1,0,0v-.891A9.713,9.713,0,0,1,31.648,34.54Z"/></svg>