<svg xmlns="http://www.w3.org/2000/svg" width="101.262" height="81.01" viewBox="0 0 101.262 81.01"><path d="M0,35.442V78.478A2.531,2.531,0,0,0,2.532,81.01H15.189V30.379H5.063A5.064,5.064,0,0,0,0,35.442Zm56.96-7.595h-3.8V21.518A1.265,1.265,0,0,0,51.9,20.252H49.365A1.265,1.265,0,0,0,48.1,21.518V31.644a1.265,1.265,0,0,0,1.266,1.266H56.96a1.265,1.265,0,0,0,1.266-1.266V29.113A1.265,1.265,0,0,0,56.96,27.847Zm21.8-10.12L53.439.85a5.066,5.066,0,0,0-5.617,0L22.507,17.727a5.063,5.063,0,0,0-2.255,4.212V81.01H40.5V58.226a2.531,2.531,0,0,1,2.532-2.532H58.226a2.531,2.531,0,0,1,2.532,2.532V81.01H81.01V21.941a5.064,5.064,0,0,0-2.255-4.213ZM50.631,40.5A12.658,12.658,0,1,1,63.289,27.847,12.658,12.658,0,0,1,50.631,40.5ZM96.2,30.379H86.073V81.01H98.731a2.531,2.531,0,0,0,2.532-2.532V35.442A5.064,5.064,0,0,0,96.2,30.379Z" fill="#ffbf00"/></svg>