<svg xmlns="http://www.w3.org/2000/svg" width="150" height="150" viewBox="0 0 150 150">
  <g id="Group_53" data-name="Group 53" transform="translate(-104 -3290)">
    <g id="Group_40" data-name="Group 40" transform="translate(0 -370)">
      <path id="Rectangle_32" data-name="Rectangle 32" d="M50,0h50a50,50,0,0,1,50,50v50a50,50,0,0,1-50,50H0a0,0,0,0,1,0,0V50A50,50,0,0,1,50,0Z" transform="translate(104 3660)" fill="#ffbf00" opacity="0.14"/>
      <g id="_4047369_analysis_architecture_data_datasets_learning_icon" data-name="4047369_analysis_architecture_data_datasets_learning_icon" transform="translate(153.025 3710.033)">
        <path id="Path_183" data-name="Path 183" d="M704.877,246.572h-2.2V233.532h0V225.4a3.385,3.385,0,0,0,2.779-3.142,3.828,3.828,0,0,0-7.572,0,3.385,3.385,0,0,0,2.779,3.142v4.126a3.871,3.871,0,0,0-1.41-.263h-4.265V231h4.265a1.324,1.324,0,0,1,1.41,1.214v14.357h-1.848a2.268,2.268,0,0,0-2.416,2.081v5.221a2.268,2.268,0,0,0,2.416,2.081h6.063a2.268,2.268,0,0,0,2.417-2.081v-5.221A2.268,2.268,0,0,0,704.877,246.572Zm-4.98-24.311a1.792,1.792,0,1,1,1.772,1.526A1.665,1.665,0,0,1,699.9,222.261Z" transform="translate(-655.246 -213.623)" fill="#63593d"/>
        <path id="Path_184" data-name="Path 184" d="M436.217,668.944h-2.025v-3.816h-2.014v3.816h-2.025a2.417,2.417,0,0,0-2.417,2.417v6.063a2.417,2.417,0,0,0,2.417,2.417h6.063a2.417,2.417,0,0,0,2.417-2.417V671.36A2.417,2.417,0,0,0,436.217,668.944Z" transform="translate(-407.501 -629.774)" fill="#63593d"/>
        <path id="Path_185" data-name="Path 185" d="M332.832,152.231c-6.669,0-12.076,1.66-12.076,3.708,0,.036,0,.071.006.106h-.006V162.8c0,2.048,5.407,3.709,12.076,3.709s12.077-1.66,12.077-3.709v-6.757H344.9c0-.035.006-.07.006-.106C344.909,153.891,339.5,152.231,332.832,152.231Zm-9.042,9.438a1.162,1.162,0,1,1,.987-1.149A1.078,1.078,0,0,1,323.79,161.669Zm8.94,1.721a1.163,1.163,0,1,1,.987-1.149A1.078,1.078,0,0,1,332.73,163.391Zm9.144-1.721a1.162,1.162,0,1,1,.987-1.149A1.078,1.078,0,0,1,341.875,161.669Z" transform="translate(-307.181 -152.231)" fill="#63593d"/>
        <path id="Path_186" data-name="Path 186" d="M344.9,322.391l-.023.017a10.518,10.518,0,0,1-3.062,1.417,35.556,35.556,0,0,1-17.96,0,10.518,10.518,0,0,1-3.062-1.417l-.023-.017a1.048,1.048,0,0,0-.012.161c0,.036,0,.071.006.107h-.006v6.756c0,2.048,5.407,3.709,12.076,3.709s12.077-1.66,12.077-3.709v-6.756H344.9c0-.036.006-.071.006-.107A1.041,1.041,0,0,0,344.9,322.391Zm-21.107,6.18a1.162,1.162,0,1,1,.987-1.149A1.078,1.078,0,0,1,323.791,328.571Zm8.94,1.721a1.162,1.162,0,1,1,.987-1.149A1.078,1.078,0,0,1,332.731,330.292Zm9.144-1.721a1.162,1.162,0,1,1,.987-1.149A1.077,1.077,0,0,1,341.876,328.571Z" transform="translate(-307.182 -310.488)" fill="#63593d"/>
        <path id="Path_187" data-name="Path 187" d="M344.9,448.521l-.023.017a10.514,10.514,0,0,1-3.062,1.417,35.556,35.556,0,0,1-17.96,0,10.514,10.514,0,0,1-3.062-1.417l-.023-.017a1.067,1.067,0,0,0-.012.162c0,.035,0,.071.006.106h-.006v6.757c0,1.959,4.946,3.563,11.212,3.7v2.7H326.8a1.019,1.019,0,0,0,0,2.014h12.077a1.019,1.019,0,0,0,0-2.014H333.7v-2.7c6.266-.136,11.212-1.74,11.212-3.7v-6.757H344.9c0-.035.006-.071.006-.106A1.059,1.059,0,0,0,344.9,448.521Zm-21.107,6.469a1.163,1.163,0,1,1,.987-1.149A1.078,1.078,0,0,1,323.791,454.99Zm8.94,1.721a1.162,1.162,0,1,1,.987-1.149A1.078,1.078,0,0,1,332.731,456.711Zm9.144-1.721a1.163,1.163,0,1,1,.987-1.149A1.078,1.078,0,0,1,341.876,454.99Z" transform="translate(-307.182 -428.159)" fill="#63593d"/>
        <path id="Path_188" data-name="Path 188" d="M158.118,229.529V225.4a3.385,3.385,0,0,0,2.779-3.142,3.828,3.828,0,0,0-7.572,0A3.385,3.385,0,0,0,156.1,225.4v8.129h0v13.039h-1.456a2.268,2.268,0,0,0-2.417,2.081v5.221a2.268,2.268,0,0,0,2.417,2.081h6.063a2.268,2.268,0,0,0,2.417-2.081v-5.221a2.268,2.268,0,0,0-2.417-2.081h-2.593V232.215a1.324,1.324,0,0,1,1.41-1.214h4.265v-1.734h-4.265A3.871,3.871,0,0,0,158.118,229.529Zm-2.779-7.268a1.792,1.792,0,1,1,1.772,1.526A1.665,1.665,0,0,1,155.339,222.261Z" transform="translate(-152.232 -213.623)" fill="#63593d"/>
      </g>
    </g>
  </g>
</svg>
