<svg xmlns="http://www.w3.org/2000/svg" width="150" height="150" viewBox="0 0 150 150">
  <g id="Group_43" data-name="Group 43" transform="translate(-104 -2696)">
    <rect id="Rectangle_51" data-name="Rectangle 51" width="150" height="150" rx="75" transform="translate(104 2696)" fill="#f643fc" opacity="0.14"/>
    <g id="_4071402_science_technology_application_data_future_of_farming_icon" data-name="4071402_science_technology_application_data_future of farming_icon" transform="translate(153.004 2743.554)">
      <rect id="Rectangle_44" data-name="Rectangle 44" width="7.355" height="1.156" transform="translate(26.751 35.997) rotate(-45)" fill="#63593d"/>
      <rect id="Rectangle_45" data-name="Rectangle 45" width="1.156" height="7.355" transform="translate(19.239 31.614) rotate(-45)" fill="#63593d"/>
      <path id="Path_189" data-name="Path 189" d="M28,88.2a1.155,1.155,0,0,0,1.156,1.156h20.8A1.155,1.155,0,0,0,51.115,88.2V83H28Zm11.557-4.045a1.734,1.734,0,1,1-1.734,1.734A1.734,1.734,0,0,1,39.557,84.156Z" transform="translate(-13.553 -36.193)" fill="#63593d"/>
      <path id="Path_190" data-name="Path 190" d="M21.311,10.032v4.1a.579.579,0,0,0,.412.554L27.09,16.3v5.927H25.357A1.155,1.155,0,0,0,24.2,23.381v2.311H47.316V23.381a1.155,1.155,0,0,0-1.156-1.156H44.426V16.3l5.367-1.61a.579.579,0,0,0,.412-.554v-4.1a2.889,2.889,0,1,0-1.156,0v3.674l-5.367,1.61a.579.579,0,0,0-.412.554v6.357H36.336V7.72a2.889,2.889,0,1,0-1.156,0V22.225H28.246V15.869a.579.579,0,0,0-.412-.554l-5.367-1.61V10.032a2.889,2.889,0,1,0-1.156,0ZM48.471,7.2a1.156,1.156,0,1,1,1.156,1.156A1.155,1.155,0,0,1,48.471,7.2ZM34.6,4.889a1.156,1.156,0,1,1,1.156,1.156A1.155,1.155,0,0,1,34.6,4.889Zm-.578,18.492h3.467v1.156H34.025ZM21.889,6.045A1.156,1.156,0,1,1,20.734,7.2,1.155,1.155,0,0,1,21.889,6.045Z" transform="translate(-9.754 -2)" fill="#63593d"/>
      <path id="Path_191" data-name="Path 191" d="M5.889,35.779A2.89,2.89,0,0,0,8.72,33.467h2.37V48.492a.578.578,0,0,0,.578.578h5.779v4.045H13.98a.578.578,0,0,0-.578.578v6.934H9.876a2.889,2.889,0,1,0,0,1.156h4.1a.578.578,0,0,0,.578-.578V54.271h2.889v5.2H40.562v-5.2h2.889v6.934a.578.578,0,0,0,.578.578h4.1a2.889,2.889,0,1,0,0-1.156H44.607V53.693a.578.578,0,0,0-.578-.578H40.562V49.07H46.34a.578.578,0,0,0,.578-.578V33.467h2.37a2.889,2.889,0,1,0,0-1.156H46.34a.578.578,0,0,0-.578.578V47.914h-5.2V38.668H17.447v9.246h-5.2V32.889a.578.578,0,0,0-.578-.578H8.72a2.889,2.889,0,1,0-2.831,3.467ZM7.045,62.361A1.156,1.156,0,1,1,8.2,61.205,1.155,1.155,0,0,1,7.045,62.361Zm43.918-2.311a1.156,1.156,0,1,1-1.156,1.156A1.155,1.155,0,0,1,50.963,60.049Zm1.156-28.316a1.156,1.156,0,1,1-1.156,1.156A1.155,1.155,0,0,1,52.119,31.734ZM20.914,43.291h.867a7.226,7.226,0,0,1,7.044,5.618.183.183,0,0,0,.358,0,7.225,7.225,0,0,1,7.044-5.618h.867v.867a7.223,7.223,0,0,1-7.223,7.223h-.29V57.16H28.426V51.381h-.29a7.223,7.223,0,0,1-7.223-7.223ZM5.889,31.734a1.156,1.156,0,1,1-1.156,1.156A1.155,1.155,0,0,1,5.889,31.734Z" transform="translate(-3 -13.82)" fill="#63593d"/>
    </g>
  </g>
</svg>
