<svg xmlns="http://www.w3.org/2000/svg" width="150" height="150" viewBox="0 0 150 150">
  <g id="Group_51" data-name="Group 51" transform="translate(-1070 -2695)">
    <g id="Group_42" data-name="Group 42" transform="translate(0 -590)">
      <path id="Rectangle_52" data-name="Rectangle 52" d="M50,0h50a50,50,0,0,1,50,50v50a50,50,0,0,1-50,50H0a0,0,0,0,1,0,0V50A50,50,0,0,1,50,0Z" transform="translate(1070 3285)" fill="#2bf668" opacity="0.14"/>
      <g id="_7984938_covid19_coronavirus_virus_corona_statistics_icon" data-name="7984938_covid19_coronavirus_virus_corona_statistics_icon" transform="translate(1119.042 3334.042)">
        <path id="Path_196" data-name="Path 196" d="M2.93,17.378a1.86,1.86,0,0,0-.681,2.541l1.86,3.221a1.86,1.86,0,1,0,3.222-1.86h0l1.825-1.053A7.427,7.427,0,0,0,12.6,22.2V24.32a1.86,1.86,0,1,0,0,3.72h3.72a1.86,1.86,0,1,0,0-3.72V22.2a7.427,7.427,0,0,0,3.434-1.968l1.823,1.053h0a1.86,1.86,0,1,0,3.222,1.86l1.86-3.222a1.86,1.86,0,1,0-3.222-1.86L21.6,17A7.341,7.341,0,0,0,21.9,15.02a7.341,7.341,0,0,0-.3-1.975l1.843-1.064a1.86,1.86,0,1,0,3.222-1.86L24.807,6.9a1.86,1.86,0,1,0-3.222,1.86h0L19.763,9.812a7.427,7.427,0,0,0-3.441-1.968V5.72a1.86,1.86,0,1,0,0-3.72H12.6a1.86,1.86,0,1,0,0,3.72V7.844A7.427,7.427,0,0,0,9.155,9.812L7.331,8.759h0A1.86,1.86,0,1,0,4.109,6.9l-1.86,3.222a1.86,1.86,0,1,0,3.222,1.86l1.843,1.066a7.339,7.339,0,0,0-.292,1.973,7.339,7.339,0,0,0,.3,1.973L5.478,18.057a1.86,1.86,0,0,0-2.548-.679ZM14.462,11.3a3.72,3.72,0,1,1-3.72,3.72A3.72,3.72,0,0,1,14.462,11.3Z" transform="translate(-2 -2)" fill="#63593d"/>
        <path id="Path_197" data-name="Path 197" d="M52.219,6h-7.44a1.86,1.86,0,1,0,0,3.72h3.13L27.8,33.184,19.9,26.86a1.86,1.86,0,0,0-2.386.052L2.636,39.932a1.861,1.861,0,0,0,2.45,2.8L18.794,30.738l8.085,6.469a1.86,1.86,0,0,0,2.574-.244L50.359,12.579V15.3a1.86,1.86,0,1,0,3.72,0V7.86A1.86,1.86,0,0,0,52.219,6Z" transform="translate(-2 1.44)" fill="#63593d"/>
        <path id="Path_198" data-name="Path 198" d="M6.86,26A1.86,1.86,0,0,0,5,27.86v3.72a1.86,1.86,0,0,0,3.72,0V27.86A1.86,1.86,0,0,0,6.86,26Z" transform="translate(0.58 18.639)" fill="#63593d"/>
        <path id="Path_199" data-name="Path 199" d="M11.86,22A1.86,1.86,0,0,0,10,23.86V35.02a1.86,1.86,0,0,0,3.72,0V23.86A1.86,1.86,0,0,0,11.86,22Z" transform="translate(4.88 15.2)" fill="#63593d"/>
        <path id="Path_200" data-name="Path 200" d="M16.86,25A1.86,1.86,0,0,0,15,26.86v5.58a1.86,1.86,0,1,0,3.72,0V26.86A1.86,1.86,0,0,0,16.86,25Z" transform="translate(9.18 17.779)" fill="#63593d"/>
        <path id="Path_201" data-name="Path 201" d="M21.86,21A1.86,1.86,0,0,0,20,22.86V35.88a1.86,1.86,0,0,0,3.72,0V22.86A1.86,1.86,0,0,0,21.86,21Z" transform="translate(13.48 14.34)" fill="#63593d"/>
        <path id="Path_202" data-name="Path 202" d="M26.86,15A1.86,1.86,0,0,0,25,16.86V41.04a1.86,1.86,0,1,0,3.72,0V16.86A1.86,1.86,0,0,0,26.86,15Z" transform="translate(17.78 9.18)" fill="#63593d"/>
      </g>
    </g>
  </g>
</svg>
