<svg xmlns="http://www.w3.org/2000/svg" width="60.757" height="81.01" viewBox="0 0 60.757 81.01"><path d="M15.4,80.213a52.573,52.573,0,0,1,0-74.354,2.72,2.72,0,0,1,3.364-.383l10.255,6.41A2.719,2.719,0,0,1,30.1,15.2L24.976,28.022a2.72,2.72,0,0,1-2.8,1.7l-8.83-.883a42.029,42.029,0,0,0,0,28.4l8.831-.883a2.72,2.72,0,0,1,2.8,1.7L30.1,70.87a2.72,2.72,0,0,1-1.084,3.316L18.765,80.6a2.72,2.72,0,0,1-3.364-.383ZM39.1,15.106a10.134,10.134,0,0,1,0,10.293,1.907,1.907,0,0,1-2.962.408l-.945-.906a1.913,1.913,0,0,1-.358-2.28,5.073,5.073,0,0,0,0-4.738,1.913,1.913,0,0,1,.358-2.28l.945-.906a1.907,1.907,0,0,1,2.962.408ZM53.623.678a30.422,30.422,0,0,1,0,39.149,1.906,1.906,0,0,1-2.777.148l-.917-.879a1.9,1.9,0,0,1-.147-2.592,25.352,25.352,0,0,0,0-32.5,1.9,1.9,0,0,1,.147-2.592l.917-.879a1.906,1.906,0,0,1,2.777.148ZM46.35,7.789a20.282,20.282,0,0,1,0,24.927,1.907,1.907,0,0,1-2.825.206L42.6,32.04a1.9,1.9,0,0,1-.2-2.521,15.21,15.21,0,0,0,0-18.533,1.9,1.9,0,0,1,.2-2.521l.921-.883a1.907,1.907,0,0,1,2.825.206Z" fill="#0013de"/></svg>