<svg xmlns="http://www.w3.org/2000/svg" width="599.222" height="650" viewBox="0 0 599.222 650"><g transform="translate(-4172.021 144.514)"><path d="M20.428,10.209A10.214,10.214,0,1,1,10.214,0,10.209,10.209,0,0,1,20.428,10.209Z" transform="translate(4172.021 -144.514)" fill="#f0a536" fill-rule="evenodd"/><path d="M20.428,25.2A10.214,10.214,0,1,1,10.214,14.993,10.209,10.209,0,0,1,20.428,25.2Z" transform="translate(4172.021 -108.46)" fill="#f0a536" fill-rule="evenodd"/><path d="M36.428,25.2A10.214,10.214,0,1,1,26.214,14.993,10.209,10.209,0,0,1,36.428,25.2Z" transform="translate(4210.495 -108.46)" fill="#f0a536" fill-rule="evenodd"/><path d="M51.428,25.2A10.214,10.214,0,1,1,41.214,14.993,10.209,10.209,0,0,1,51.428,25.2Z" transform="translate(4246.565 -108.46)" fill="#f0a536" fill-rule="evenodd"/><path d="M66.428,25.2A10.214,10.214,0,1,1,56.214,14.993,10.209,10.209,0,0,1,66.428,25.2Z" transform="translate(4282.635 -108.46)" fill="#f0a536" fill-rule="evenodd"/><path d="M82.428,25.2A10.214,10.214,0,1,1,72.214,14.993,10.209,10.209,0,0,1,82.428,25.2Z" transform="translate(4321.11 -108.46)" fill="#f0a536" fill-rule="evenodd"/><path d="M97.428,25.2A10.214,10.214,0,1,1,87.214,14.993,10.209,10.209,0,0,1,97.428,25.2Z" transform="translate(4357.18 -108.46)" fill="#f0a536" fill-rule="evenodd"/><path d="M113.428,25.2a10.214,10.214,0,1,1-10.214-10.209A10.209,10.209,0,0,1,113.428,25.2Z" transform="translate(4395.655 -108.46)" fill="#f0a536" fill-rule="evenodd"/><path d="M128.428,25.2a10.214,10.214,0,1,1-10.214-10.209A10.208,10.208,0,0,1,128.428,25.2Z" transform="translate(4431.726 -108.46)" fill="#f0a536" fill-rule="evenodd"/><path d="M144.428,25.2a10.214,10.214,0,1,1-10.214-10.209A10.208,10.208,0,0,1,144.428,25.2Z" transform="translate(4470.2 -108.46)" fill="#f0a536" fill-rule="evenodd"/><path d="M159.428,25.2a10.214,10.214,0,1,1-10.214-10.209A10.208,10.208,0,0,1,159.428,25.2Z" transform="translate(4506.271 -108.46)" fill="#f0a536" fill-rule="evenodd"/><path d="M174.428,25.2a10.214,10.214,0,1,1-10.214-10.209A10.208,10.208,0,0,1,174.428,25.2Z" transform="translate(4542.34 -108.46)" fill="#f0a536" fill-rule="evenodd"/><path d="M190.428,25.2a10.214,10.214,0,1,1-10.214-10.209A10.208,10.208,0,0,1,190.428,25.2Z" transform="translate(4580.815 -108.46)" fill="#f0a536" fill-rule="evenodd"/><path d="M20.428,41.2A10.214,10.214,0,1,1,10.214,30.986,10.209,10.209,0,0,1,20.428,41.2Z" transform="translate(4172.021 -70.002)" fill="#f0a536" fill-rule="evenodd"/><path d="M36.428,41.2A10.214,10.214,0,1,1,26.214,30.986,10.209,10.209,0,0,1,36.428,41.2Z" transform="translate(4210.495 -70.002)" fill="#f0a536" fill-rule="evenodd"/><path d="M51.428,41.2A10.214,10.214,0,1,1,41.214,30.986,10.209,10.209,0,0,1,51.428,41.2Z" transform="translate(4246.565 -70.002)" fill="#f0a536" fill-rule="evenodd"/><path d="M66.428,41.2A10.214,10.214,0,1,1,56.214,30.986,10.209,10.209,0,0,1,66.428,41.2Z" transform="translate(4282.635 -70.002)" fill="#f0a536" fill-rule="evenodd"/><path d="M82.428,41.2A10.214,10.214,0,1,1,72.214,30.986,10.209,10.209,0,0,1,82.428,41.2Z" transform="translate(4321.11 -70.002)" fill="#f0a536" fill-rule="evenodd"/><path d="M97.428,41.2A10.214,10.214,0,1,1,87.214,30.986,10.209,10.209,0,0,1,97.428,41.2Z" transform="translate(4357.18 -70.002)" fill="#f0a536" fill-rule="evenodd"/><path d="M113.428,41.2a10.214,10.214,0,1,1-10.214-10.209A10.209,10.209,0,0,1,113.428,41.2Z" transform="translate(4395.655 -70.002)" fill="#f0a536" fill-rule="evenodd"/><path d="M128.428,41.2a10.214,10.214,0,1,1-10.214-10.209A10.208,10.208,0,0,1,128.428,41.2Z" transform="translate(4431.726 -70.002)" fill="#f0a536" fill-rule="evenodd"/><path d="M144.428,41.2a10.214,10.214,0,1,1-10.214-10.209A10.208,10.208,0,0,1,144.428,41.2Z" transform="translate(4470.2 -70.002)" fill="#f0a536" fill-rule="evenodd"/><path d="M159.428,41.2a10.214,10.214,0,1,1-10.214-10.209A10.208,10.208,0,0,1,159.428,41.2Z" transform="translate(4506.271 -70.002)" fill="#f0a536" fill-rule="evenodd"/><path d="M174.428,41.2a10.214,10.214,0,1,1-10.214-10.209A10.208,10.208,0,0,1,174.428,41.2Z" transform="translate(4542.34 -70.002)" fill="#f0a536" fill-rule="evenodd"/><path d="M190.428,41.2a10.214,10.214,0,1,1-10.214-10.209A10.208,10.208,0,0,1,190.428,41.2Z" transform="translate(4580.815 -70.002)" fill="#f0a536" fill-rule="evenodd"/><path d="M20.428,56.189a10.214,10.214,0,1,1-10.214-10.21A10.209,10.209,0,0,1,20.428,56.189Z" transform="translate(4172.021 -33.949)" fill="#f0a536" fill-rule="evenodd"/><path d="M36.428,56.189a10.214,10.214,0,1,1-10.214-10.21A10.209,10.209,0,0,1,36.428,56.189Z" transform="translate(4210.495 -33.949)" fill="#f0a536" fill-rule="evenodd"/><path d="M51.428,56.189a10.214,10.214,0,1,1-10.214-10.21A10.209,10.209,0,0,1,51.428,56.189Z" transform="translate(4246.565 -33.949)" fill="#f0a536" fill-rule="evenodd"/><path d="M66.428,56.189a10.214,10.214,0,1,1-10.214-10.21A10.209,10.209,0,0,1,66.428,56.189Z" transform="translate(4282.635 -33.949)" fill="#f0a536" fill-rule="evenodd"/><path d="M82.428,56.189a10.214,10.214,0,1,1-10.214-10.21A10.209,10.209,0,0,1,82.428,56.189Z" transform="translate(4321.11 -33.949)" fill="#f0a536" fill-rule="evenodd"/><path d="M97.428,56.189a10.214,10.214,0,1,1-10.214-10.21A10.209,10.209,0,0,1,97.428,56.189Z" transform="translate(4357.18 -33.949)" fill="#f0a536" fill-rule="evenodd"/><path d="M113.428,56.189a10.214,10.214,0,1,1-10.214-10.21A10.209,10.209,0,0,1,113.428,56.189Z" transform="translate(4395.655 -33.949)" fill="#f0a536" fill-rule="evenodd"/><path d="M128.428,56.189a10.214,10.214,0,1,1-10.214-10.21A10.208,10.208,0,0,1,128.428,56.189Z" transform="translate(4431.726 -33.949)" fill="#f0a536" fill-rule="evenodd"/><path d="M144.428,56.189a10.214,10.214,0,1,1-10.214-10.21A10.208,10.208,0,0,1,144.428,56.189Z" transform="translate(4470.2 -33.949)" fill="#f0a536" fill-rule="evenodd"/><path d="M159.428,56.189a10.214,10.214,0,1,1-10.214-10.21A10.208,10.208,0,0,1,159.428,56.189Z" transform="translate(4506.271 -33.949)" fill="#f0a536" fill-rule="evenodd"/><path d="M174.428,56.189a10.214,10.214,0,1,1-10.214-10.21A10.208,10.208,0,0,1,174.428,56.189Z" transform="translate(4542.34 -33.949)" fill="#f0a536" fill-rule="evenodd"/><path d="M190.428,56.189a10.214,10.214,0,1,1-10.214-10.21A10.208,10.208,0,0,1,190.428,56.189Z" transform="translate(4580.815 -33.949)" fill="#f0a536" fill-rule="evenodd"/><path d="M20.428,72.182a10.214,10.214,0,1,1-10.214-10.21A10.209,10.209,0,0,1,20.428,72.182Z" transform="translate(4172.021 4.509)" fill="#f0a536" fill-rule="evenodd"/><path d="M36.428,72.182a10.214,10.214,0,1,1-10.214-10.21A10.209,10.209,0,0,1,36.428,72.182Z" transform="translate(4210.495 4.509)" fill="#f0a536" fill-rule="evenodd"/><path d="M51.428,72.182a10.214,10.214,0,1,1-10.214-10.21A10.209,10.209,0,0,1,51.428,72.182Z" transform="translate(4246.565 4.509)" fill="#f0a536" fill-rule="evenodd"/><path d="M66.428,72.182a10.214,10.214,0,1,1-10.214-10.21A10.209,10.209,0,0,1,66.428,72.182Z" transform="translate(4282.635 4.509)" fill="#f0a536" fill-rule="evenodd"/><path d="M20.428,87.175A10.214,10.214,0,1,1,10.214,76.965,10.209,10.209,0,0,1,20.428,87.175Z" transform="translate(4172.021 40.563)" fill="#f0a536" fill-rule="evenodd"/><path d="M36.428,87.175A10.214,10.214,0,1,1,26.214,76.965,10.209,10.209,0,0,1,36.428,87.175Z" transform="translate(4210.495 40.563)" fill="#f0a536" fill-rule="evenodd"/><path d="M51.428,87.175A10.214,10.214,0,1,1,41.214,76.965,10.209,10.209,0,0,1,51.428,87.175Z" transform="translate(4246.565 40.563)" fill="#f0a536" fill-rule="evenodd"/><path d="M66.428,87.175A10.214,10.214,0,1,1,56.214,76.965,10.209,10.209,0,0,1,66.428,87.175Z" transform="translate(4282.635 40.563)" fill="#f0a536" fill-rule="evenodd"/><path d="M20.428,103.167A10.214,10.214,0,1,1,10.214,92.958,10.209,10.209,0,0,1,20.428,103.167Z" transform="translate(4172.021 79.02)" fill="#f0a536" fill-rule="evenodd"/><path d="M36.428,103.167A10.214,10.214,0,1,1,26.214,92.958,10.209,10.209,0,0,1,36.428,103.167Z" transform="translate(4210.495 79.02)" fill="#f0a536" fill-rule="evenodd"/><path d="M51.428,103.167A10.214,10.214,0,1,1,41.214,92.958,10.209,10.209,0,0,1,51.428,103.167Z" transform="translate(4246.565 79.02)" fill="#f0a536" fill-rule="evenodd"/><path d="M66.428,103.167A10.214,10.214,0,1,1,56.214,92.958,10.209,10.209,0,0,1,66.428,103.167Z" transform="translate(4282.635 79.02)" fill="#f0a536" fill-rule="evenodd"/><path d="M20.428,118.162a10.214,10.214,0,1,1-10.214-10.211A10.209,10.209,0,0,1,20.428,118.162Z" transform="translate(4172.021 115.073)" fill="#f0a536" fill-rule="evenodd"/><path d="M36.428,118.162a10.214,10.214,0,1,1-10.214-10.211A10.209,10.209,0,0,1,36.428,118.162Z" transform="translate(4210.495 115.073)" fill="#f0a536" fill-rule="evenodd"/><path d="M51.428,118.162a10.214,10.214,0,1,1-10.214-10.211A10.209,10.209,0,0,1,51.428,118.162Z" transform="translate(4246.565 115.073)" fill="#f0a536" fill-rule="evenodd"/><path d="M66.428,118.162a10.214,10.214,0,1,1-10.214-10.211A10.209,10.209,0,0,1,66.428,118.162Z" transform="translate(4282.635 115.073)" fill="#f0a536" fill-rule="evenodd"/><path d="M20.428,133.152a10.214,10.214,0,1,1-10.214-10.207A10.209,10.209,0,0,1,20.428,133.152Z" transform="translate(4172.021 151.129)" fill="#f0a536" fill-rule="evenodd"/><path d="M36.428,133.152a10.214,10.214,0,1,1-10.214-10.207A10.209,10.209,0,0,1,36.428,133.152Z" transform="translate(4210.495 151.129)" fill="#f0a536" fill-rule="evenodd"/><path d="M51.428,133.152a10.214,10.214,0,1,1-10.214-10.207A10.209,10.209,0,0,1,51.428,133.152Z" transform="translate(4246.565 151.129)" fill="#f0a536" fill-rule="evenodd"/><path d="M66.428,133.152a10.214,10.214,0,1,1-10.214-10.207A10.209,10.209,0,0,1,66.428,133.152Z" transform="translate(4282.635 151.129)" fill="#f0a536" fill-rule="evenodd"/><path d="M20.428,149.148a10.214,10.214,0,1,1-10.214-10.211A10.209,10.209,0,0,1,20.428,149.148Z" transform="translate(4172.021 189.585)" fill="#f0a536" fill-rule="evenodd"/><path d="M36.428,149.148a10.214,10.214,0,1,1-10.214-10.211A10.209,10.209,0,0,1,36.428,149.148Z" transform="translate(4210.495 189.585)" fill="#f0a536" fill-rule="evenodd"/><path d="M51.428,149.148a10.214,10.214,0,1,1-10.214-10.211A10.209,10.209,0,0,1,51.428,149.148Z" transform="translate(4246.565 189.585)" fill="#f0a536" fill-rule="evenodd"/><path d="M66.428,149.148a10.214,10.214,0,1,1-10.214-10.211A10.209,10.209,0,0,1,66.428,149.148Z" transform="translate(4282.635 189.585)" fill="#f0a536" fill-rule="evenodd"/><path d="M20.428,164.138a10.214,10.214,0,1,1-10.214-10.207A10.209,10.209,0,0,1,20.428,164.138Z" transform="translate(4172.021 225.64)" fill="#f0a536" fill-rule="evenodd"/><path d="M36.428,164.138a10.214,10.214,0,1,1-10.214-10.207A10.209,10.209,0,0,1,36.428,164.138Z" transform="translate(4210.495 225.64)" fill="#f0a536" fill-rule="evenodd"/><path d="M51.428,164.138a10.214,10.214,0,1,1-10.214-10.207A10.209,10.209,0,0,1,51.428,164.138Z" transform="translate(4246.565 225.64)" fill="#f0a536" fill-rule="evenodd"/><path d="M66.428,164.138a10.214,10.214,0,1,1-10.214-10.207A10.209,10.209,0,0,1,66.428,164.138Z" transform="translate(4282.635 225.64)" fill="#f0a536" fill-rule="evenodd"/><path d="M20.428,180.134a10.214,10.214,0,1,1-10.214-10.211A10.209,10.209,0,0,1,20.428,180.134Z" transform="translate(4172.021 264.096)" fill="#f0a536" fill-rule="evenodd"/><path d="M36.428,180.134a10.214,10.214,0,1,1-10.214-10.211A10.209,10.209,0,0,1,36.428,180.134Z" transform="translate(4210.495 264.096)" fill="#f0a536" fill-rule="evenodd"/><path d="M51.428,180.134a10.214,10.214,0,1,1-10.214-10.211A10.209,10.209,0,0,1,51.428,180.134Z" transform="translate(4246.565 264.096)" fill="#f0a536" fill-rule="evenodd"/><path d="M66.428,180.134a10.214,10.214,0,1,1-10.214-10.211A10.209,10.209,0,0,1,66.428,180.134Z" transform="translate(4282.635 264.096)" fill="#f0a536" fill-rule="evenodd"/><path d="M82.428,180.134a10.214,10.214,0,1,1-10.214-10.211A10.209,10.209,0,0,1,82.428,180.134Z" transform="translate(4321.11 264.096)" fill="#f0a536" fill-rule="evenodd"/><path d="M97.428,180.134a10.214,10.214,0,1,1-10.214-10.211A10.209,10.209,0,0,1,97.428,180.134Z" transform="translate(4357.18 264.096)" fill="#f0a536" fill-rule="evenodd"/><path d="M113.428,180.134a10.214,10.214,0,1,1-10.214-10.211A10.209,10.209,0,0,1,113.428,180.134Z" transform="translate(4395.655 264.096)" fill="#f0a536" fill-rule="evenodd"/><path d="M128.428,180.134a10.214,10.214,0,1,1-10.214-10.211A10.208,10.208,0,0,1,128.428,180.134Z" transform="translate(4431.726 264.096)" fill="#f0a536" fill-rule="evenodd"/><path d="M144.428,180.134a10.214,10.214,0,1,1-10.214-10.211A10.208,10.208,0,0,1,144.428,180.134Z" transform="translate(4470.2 264.096)" fill="#f0a536" fill-rule="evenodd"/><path d="M159.428,180.134a10.214,10.214,0,1,1-10.214-10.211A10.208,10.208,0,0,1,159.428,180.134Z" transform="translate(4506.271 264.096)" fill="#f0a536" fill-rule="evenodd"/><path d="M174.428,180.134a10.214,10.214,0,1,1-10.214-10.211A10.208,10.208,0,0,1,174.428,180.134Z" transform="translate(4542.34 264.096)" fill="#f0a536" fill-rule="evenodd"/><path d="M190.428,180.134a10.214,10.214,0,1,1-10.214-10.211A10.208,10.208,0,0,1,190.428,180.134Z" transform="translate(4580.815 264.096)" fill="#f0a536" fill-rule="evenodd"/><path d="M20.428,195.124a10.214,10.214,0,1,1-10.214-10.207A10.209,10.209,0,0,1,20.428,195.124Z" transform="translate(4172.021 300.152)" fill="#f0a536" fill-rule="evenodd"/><path d="M36.428,195.124a10.214,10.214,0,1,1-10.214-10.207A10.209,10.209,0,0,1,36.428,195.124Z" transform="translate(4210.495 300.152)" fill="#f0a536" fill-rule="evenodd"/><path d="M51.428,195.124a10.214,10.214,0,1,1-10.214-10.207A10.209,10.209,0,0,1,51.428,195.124Z" transform="translate(4246.565 300.152)" fill="#f0a536" fill-rule="evenodd"/><path d="M66.428,195.124a10.214,10.214,0,1,1-10.214-10.207A10.209,10.209,0,0,1,66.428,195.124Z" transform="translate(4282.635 300.152)" fill="#f0a536" fill-rule="evenodd"/><path d="M82.428,195.124a10.214,10.214,0,1,1-10.214-10.207A10.209,10.209,0,0,1,82.428,195.124Z" transform="translate(4321.11 300.152)" fill="#f0a536" fill-rule="evenodd"/><path d="M97.428,195.124a10.214,10.214,0,1,1-10.214-10.207A10.209,10.209,0,0,1,97.428,195.124Z" transform="translate(4357.18 300.152)" fill="#f0a536" fill-rule="evenodd"/><path d="M113.428,195.124a10.214,10.214,0,1,1-10.214-10.207A10.209,10.209,0,0,1,113.428,195.124Z" transform="translate(4395.655 300.152)" fill="#f0a536" fill-rule="evenodd"/><path d="M128.428,195.124a10.214,10.214,0,1,1-10.214-10.207A10.208,10.208,0,0,1,128.428,195.124Z" transform="translate(4431.726 300.152)" fill="#f0a536" fill-rule="evenodd"/><path d="M144.428,195.124a10.214,10.214,0,1,1-10.214-10.207A10.208,10.208,0,0,1,144.428,195.124Z" transform="translate(4470.2 300.152)" fill="#f0a536" fill-rule="evenodd"/><path d="M159.428,195.124a10.214,10.214,0,1,1-10.214-10.207A10.208,10.208,0,0,1,159.428,195.124Z" transform="translate(4506.271 300.152)" fill="#f0a536" fill-rule="evenodd"/><path d="M174.428,195.124a10.214,10.214,0,1,1-10.214-10.207A10.208,10.208,0,0,1,174.428,195.124Z" transform="translate(4542.34 300.152)" fill="#f0a536" fill-rule="evenodd"/><path d="M190.428,195.124a10.214,10.214,0,1,1-10.214-10.207A10.208,10.208,0,0,1,190.428,195.124Z" transform="translate(4580.815 300.152)" fill="#f0a536" fill-rule="evenodd"/><path d="M36.428,10.209A10.214,10.214,0,1,1,26.214,0,10.209,10.209,0,0,1,36.428,10.209Z" transform="translate(4210.495 -144.514)" fill="#f0a536" fill-rule="evenodd"/><path d="M51.428,10.209A10.214,10.214,0,1,1,41.214,0,10.209,10.209,0,0,1,51.428,10.209Z" transform="translate(4246.565 -144.514)" fill="#f0a536" fill-rule="evenodd"/><path d="M66.428,10.209A10.214,10.214,0,1,1,56.214,0,10.209,10.209,0,0,1,66.428,10.209Z" transform="translate(4282.635 -144.514)" fill="#f0a536" fill-rule="evenodd"/><path d="M82.428,10.209A10.214,10.214,0,1,1,72.214,0,10.209,10.209,0,0,1,82.428,10.209Z" transform="translate(4321.11 -144.514)" fill="#f0a536" fill-rule="evenodd"/><path d="M97.428,10.209A10.214,10.214,0,1,1,87.214,0,10.209,10.209,0,0,1,97.428,10.209Z" transform="translate(4357.18 -144.514)" fill="#f0a536" fill-rule="evenodd"/><path d="M113.428,10.209A10.214,10.214,0,1,1,103.214,0,10.209,10.209,0,0,1,113.428,10.209Z" transform="translate(4395.655 -144.514)" fill="#f0a536" fill-rule="evenodd"/><path d="M128.428,10.209A10.214,10.214,0,1,1,118.214,0,10.208,10.208,0,0,1,128.428,10.209Z" transform="translate(4431.726 -144.514)" fill="#f0a536" fill-rule="evenodd"/><path d="M144.428,10.209A10.214,10.214,0,1,1,134.214,0,10.208,10.208,0,0,1,144.428,10.209Z" transform="translate(4470.2 -144.514)" fill="#f0a536" fill-rule="evenodd"/><path d="M159.428,10.209A10.214,10.214,0,1,1,149.214,0,10.208,10.208,0,0,1,159.428,10.209Z" transform="translate(4506.271 -144.514)" fill="#f0a536" fill-rule="evenodd"/><path d="M174.428,10.209A10.214,10.214,0,1,1,164.214,0,10.208,10.208,0,0,1,174.428,10.209Z" transform="translate(4542.34 -144.514)" fill="#f0a536" fill-rule="evenodd"/><path d="M190.428,10.209A10.214,10.214,0,1,1,180.214,0,10.208,10.208,0,0,1,190.428,10.209Z" transform="translate(4580.815 -144.514)" fill="#f0a536" fill-rule="evenodd"/></g></svg>