<svg xmlns="http://www.w3.org/2000/svg" width="404" height="404" viewBox="0 0 404 404"><g transform="translate(-163 -334)" opacity="0.34"><rect width="14" height="14" rx="3" transform="translate(163 334)" fill="#ffbf00"/><rect width="12" height="14" rx="3" transform="translate(199 334)" fill="#ffbf00"/><rect width="12" height="14" rx="3" transform="translate(234 334)" fill="#ffbf00"/><rect width="14" height="14" rx="3" transform="translate(269 334)" fill="#ffbf00"/><rect width="14" height="14" rx="3" transform="translate(305 334)" fill="#ffbf00"/><rect width="14" height="14" rx="3" transform="translate(340 334)" fill="#ffbf00"/><rect width="13" height="14" rx="3" transform="translate(376 334)" fill="#ffbf00"/><rect width="14" height="14" rx="3" transform="translate(411 334)" fill="#ffbf00"/><rect width="14" height="14" rx="3" transform="translate(446 334)" fill="#ffbf00"/><rect width="14" height="14" rx="3" transform="translate(482 334)" fill="#ffbf00"/><rect width="14" height="14" rx="3" transform="translate(517 334)" fill="#ffbf00"/><rect width="13" height="14" rx="3" transform="translate(554 334)" fill="#ffbf00"/><rect width="14" height="12" rx="3" transform="translate(163 370)" fill="#ffbf00"/><rect width="12" height="12" rx="3" transform="translate(199 370)" fill="#ffbf00"/><rect width="12" height="12" rx="3" transform="translate(234 370)" fill="#ffbf00"/><rect width="14" height="12" rx="3" transform="translate(269 370)" fill="#ffbf00"/><rect width="14" height="12" rx="3" transform="translate(305 370)" fill="#ffbf00"/><rect width="14" height="12" rx="3" transform="translate(340 370)" fill="#ffbf00"/><rect width="13" height="12" rx="3" transform="translate(376 370)" fill="#ffbf00"/><rect width="14" height="12" rx="3" transform="translate(411 370)" fill="#ffbf00"/><rect width="14" height="12" rx="3" transform="translate(446 370)" fill="#ffbf00"/><rect width="14" height="12" rx="3" transform="translate(482 370)" fill="#ffbf00"/><rect width="14" height="12" rx="3" transform="translate(517 370)" fill="#ffbf00"/><rect width="13" height="12" rx="3" transform="translate(554 370)" fill="#ffbf00"/><rect width="14" height="12" rx="3" transform="translate(163 405)" fill="#ffbf00"/><rect width="12" height="12" rx="3" transform="translate(199 405)" fill="#ffbf00"/><rect width="12" height="12" rx="3" transform="translate(234 405)" fill="#ffbf00"/><rect width="14" height="12" rx="3" transform="translate(269 405)" fill="#ffbf00"/><rect width="14" height="12" rx="3" transform="translate(305 405)" fill="#ffbf00"/><rect width="14" height="12" rx="3" transform="translate(340 405)" fill="#ffbf00"/><rect width="13" height="12" rx="3" transform="translate(376 405)" fill="#ffbf00"/><rect width="14" height="12" rx="3" transform="translate(411 405)" fill="#ffbf00"/><rect width="14" height="12" rx="3" transform="translate(446 405)" fill="#ffbf00"/><rect width="14" height="12" rx="3" transform="translate(482 405)" fill="#ffbf00"/><rect width="14" height="12" rx="3" transform="translate(517 405)" fill="#ffbf00"/><rect width="13" height="12" rx="3" transform="translate(554 405)" fill="#ffbf00"/><rect width="14" height="14" rx="3" transform="translate(163 440)" fill="#ffbf00"/><rect width="12" height="14" rx="3" transform="translate(199 440)" fill="#ffbf00"/><rect width="12" height="14" rx="3" transform="translate(234 440)" fill="#ffbf00"/><rect width="14" height="14" rx="3" transform="translate(269 440)" fill="#ffbf00"/><rect width="14" height="14" rx="3" transform="translate(305 440)" fill="#ffbf00"/><rect width="14" height="14" rx="3" transform="translate(340 440)" fill="#ffbf00"/><rect width="13" height="14" rx="3" transform="translate(376 440)" fill="#ffbf00"/><rect width="14" height="14" rx="3" transform="translate(411 440)" fill="#ffbf00"/><rect width="14" height="14" rx="3" transform="translate(446 440)" fill="#ffbf00"/><rect width="14" height="14" rx="3" transform="translate(482 440)" fill="#ffbf00"/><rect width="14" height="14" rx="3" transform="translate(517 440)" fill="#ffbf00"/><rect width="13" height="14" rx="3" transform="translate(554 440)" fill="#ffbf00"/><rect width="14" height="14" rx="3" transform="translate(163 476)" fill="#ffbf00"/><rect width="12" height="14" rx="3" transform="translate(199 476)" fill="#ffbf00"/><rect width="12" height="14" rx="3" transform="translate(234 476)" fill="#ffbf00"/><rect width="14" height="14" rx="3" transform="translate(269 476)" fill="#ffbf00"/><rect width="14" height="14" rx="3" transform="translate(305 476)" fill="#ffbf00"/><rect width="14" height="14" rx="3" transform="translate(340 476)" fill="#ffbf00"/><rect width="13" height="14" rx="3" transform="translate(376 476)" fill="#ffbf00"/><rect width="14" height="14" rx="3" transform="translate(411 476)" fill="#ffbf00"/><rect width="14" height="14" rx="3" transform="translate(446 476)" fill="#ffbf00"/><rect width="14" height="14" rx="3" transform="translate(482 476)" fill="#ffbf00"/><rect width="14" height="14" rx="3" transform="translate(517 476)" fill="#ffbf00"/><rect width="13" height="14" rx="3" transform="translate(554 476)" fill="#ffbf00"/><rect width="14" height="14" rx="3" transform="translate(163 511)" fill="#ffbf00"/><rect width="12" height="14" rx="3" transform="translate(199 511)" fill="#ffbf00"/><rect width="12" height="14" rx="3" transform="translate(234 511)" fill="#ffbf00"/><rect width="14" height="14" rx="3" transform="translate(269 511)" fill="#ffbf00"/><rect width="14" height="14" rx="3" transform="translate(305 511)" fill="#ffbf00"/><rect width="14" height="14" rx="3" transform="translate(340 511)" fill="#ffbf00"/><rect width="13" height="14" rx="3" transform="translate(376 511)" fill="#ffbf00"/><rect width="14" height="14" rx="3" transform="translate(411 511)" fill="#ffbf00"/><rect width="14" height="14" rx="3" transform="translate(446 511)" fill="#ffbf00"/><rect width="14" height="14" rx="3" transform="translate(482 511)" fill="#ffbf00"/><rect width="14" height="14" rx="3" transform="translate(517 511)" fill="#ffbf00"/><rect width="13" height="14" rx="3" transform="translate(554 511)" fill="#ffbf00"/><rect width="14" height="13" rx="3" transform="translate(163 547)" fill="#ffbf00"/><rect width="12" height="13" rx="3" transform="translate(199 547)" fill="#ffbf00"/><rect width="12" height="13" rx="3" transform="translate(234 547)" fill="#ffbf00"/><rect width="14" height="13" rx="3" transform="translate(269 547)" fill="#ffbf00"/><rect width="14" height="13" rx="3" transform="translate(305 547)" fill="#ffbf00"/><rect width="14" height="13" rx="3" transform="translate(340 547)" fill="#ffbf00"/><rect width="13" height="13" rx="3" transform="translate(376 547)" fill="#ffbf00"/><rect width="14" height="13" rx="3" transform="translate(411 547)" fill="#ffbf00"/><rect width="14" height="13" rx="3" transform="translate(446 547)" fill="#ffbf00"/><rect width="14" height="13" rx="3" transform="translate(482 547)" fill="#ffbf00"/><rect width="14" height="13" rx="3" transform="translate(517 547)" fill="#ffbf00"/><rect width="13" height="13" rx="3" transform="translate(554 547)" fill="#ffbf00"/><rect width="14" height="14" rx="3" transform="translate(163 582)" fill="#ffbf00"/><rect width="12" height="14" rx="3" transform="translate(199 582)" fill="#ffbf00"/><rect width="12" height="14" rx="3" transform="translate(234 582)" fill="#ffbf00"/><rect width="14" height="14" rx="3" transform="translate(269 582)" fill="#ffbf00"/><rect width="14" height="14" rx="3" transform="translate(305 582)" fill="#ffbf00"/><rect width="14" height="14" rx="3" transform="translate(340 582)" fill="#ffbf00"/><rect width="13" height="14" rx="3" transform="translate(376 582)" fill="#ffbf00"/><rect width="14" height="14" rx="3" transform="translate(411 582)" fill="#ffbf00"/><rect width="14" height="14" rx="3" transform="translate(446 582)" fill="#ffbf00"/><rect width="14" height="14" rx="3" transform="translate(482 582)" fill="#ffbf00"/><rect width="14" height="14" rx="3" transform="translate(517 582)" fill="#ffbf00"/><rect width="13" height="14" rx="3" transform="translate(554 582)" fill="#ffbf00"/><rect width="14" height="14" rx="3" transform="translate(163 617)" fill="#ffbf00"/><rect width="12" height="14" rx="3" transform="translate(199 617)" fill="#ffbf00"/><rect width="12" height="14" rx="3" transform="translate(234 617)" fill="#ffbf00"/><rect width="14" height="14" rx="3" transform="translate(269 617)" fill="#ffbf00"/><rect width="14" height="14" rx="3" transform="translate(305 617)" fill="#ffbf00"/><rect width="14" height="14" rx="3" transform="translate(340 617)" fill="#ffbf00"/><rect width="13" height="14" rx="3" transform="translate(376 617)" fill="#ffbf00"/><rect width="14" height="14" rx="3" transform="translate(411 617)" fill="#ffbf00"/><rect width="14" height="14" rx="3" transform="translate(446 617)" fill="#ffbf00"/><rect width="14" height="14" rx="3" transform="translate(482 617)" fill="#ffbf00"/><rect width="14" height="14" rx="3" transform="translate(517 617)" fill="#ffbf00"/><rect width="13" height="14" rx="3" transform="translate(554 617)" fill="#ffbf00"/><rect width="14" height="14" rx="3" transform="translate(163 653)" fill="#ffbf00"/><rect width="12" height="14" rx="3" transform="translate(199 653)" fill="#ffbf00"/><rect width="12" height="14" rx="3" transform="translate(234 653)" fill="#ffbf00"/><rect width="14" height="14" rx="3" transform="translate(269 653)" fill="#ffbf00"/><rect width="14" height="14" rx="3" transform="translate(305 653)" fill="#ffbf00"/><rect width="14" height="14" rx="3" transform="translate(340 653)" fill="#ffbf00"/><rect width="13" height="14" rx="3" transform="translate(376 653)" fill="#ffbf00"/><rect width="14" height="14" rx="3" transform="translate(411 653)" fill="#ffbf00"/><rect width="14" height="14" rx="3" transform="translate(446 653)" fill="#ffbf00"/><rect width="14" height="14" rx="3" transform="translate(482 653)" fill="#ffbf00"/><rect width="14" height="14" rx="3" transform="translate(517 653)" fill="#ffbf00"/><rect width="13" height="14" rx="3" transform="translate(554 653)" fill="#ffbf00"/><rect width="14" height="14" rx="3" transform="translate(163 688)" fill="#ffbf00"/><rect width="12" height="14" rx="3" transform="translate(199 688)" fill="#ffbf00"/><rect width="12" height="14" rx="3" transform="translate(234 688)" fill="#ffbf00"/><rect width="14" height="14" rx="3" transform="translate(269 688)" fill="#ffbf00"/><rect width="14" height="14" rx="3" transform="translate(305 688)" fill="#ffbf00"/><rect width="14" height="14" rx="3" transform="translate(340 688)" fill="#ffbf00"/><rect width="13" height="14" rx="3" transform="translate(376 688)" fill="#ffbf00"/><rect width="14" height="14" rx="3" transform="translate(411 688)" fill="#ffbf00"/><rect width="14" height="14" rx="3" transform="translate(446 688)" fill="#ffbf00"/><rect width="14" height="14" rx="3" transform="translate(482 688)" fill="#ffbf00"/><rect width="14" height="14" rx="3" transform="translate(517 688)" fill="#ffbf00"/><rect width="13" height="14" rx="3" transform="translate(554 688)" fill="#ffbf00"/><rect width="14" height="13" rx="3" transform="translate(163 725)" fill="#ffbf00"/><rect width="12" height="13" rx="3" transform="translate(199 725)" fill="#ffbf00"/><rect width="12" height="13" rx="3" transform="translate(234 725)" fill="#ffbf00"/><rect width="14" height="13" rx="3" transform="translate(269 725)" fill="#ffbf00"/><rect width="14" height="13" rx="3" transform="translate(305 725)" fill="#ffbf00"/><rect width="14" height="13" rx="3" transform="translate(340 725)" fill="#ffbf00"/><rect width="13" height="13" rx="3" transform="translate(376 725)" fill="#ffbf00"/><rect width="14" height="13" rx="3" transform="translate(411 725)" fill="#ffbf00"/><rect width="14" height="13" rx="3" transform="translate(446 725)" fill="#ffbf00"/><rect width="14" height="13" rx="3" transform="translate(482 725)" fill="#ffbf00"/><rect width="14" height="13" rx="3" transform="translate(517 725)" fill="#ffbf00"/><rect width="13" height="13" rx="3" transform="translate(554 725)" fill="#ffbf00"/></g></svg>