<svg width="32" height="32" viewBox="0 0 32 32" fill="none" xmlns="http://www.w3.org/2000/svg">
<path d="M10.0634 32C22.1389 32 28.7437 19.6876 28.7437 9.01028C28.7437 8.66061 28.7437 8.31248 28.7245 7.96589C30.0094 6.82204 31.1186 5.40589 32 3.78353C30.8018 4.43695 29.5306 4.86539 28.2291 5.05476C29.5994 4.04529 30.6256 2.45631 31.1155 0.585656C29.8268 1.52675 28.4167 2.19009 26.9466 2.54692C25.7052 0.922327 23.9714 0 22.1595 0C18.5544 0 15.5879 3.65085 15.5879 8.08749C15.5879 8.70299 15.6451 9.31657 15.7581 9.91607C10.4819 9.59063 5.55931 6.51928 2.22719 1.47414C0.494437 5.14514 1.391 9.90254 4.25981 12.2601C3.21512 12.222 2.19287 11.8751 1.28 11.2488V11.3511C1.28087 15.1827 3.49544 18.5131 6.54719 19.2717C5.58069 19.5961 4.56638 19.6435 3.58275 19.4103C4.44069 22.6936 6.91469 24.9567 9.7165 25.0215C7.39213 27.2696 4.51919 28.4908 1.56288 28.4871C1.0405 28.4859 0.518625 28.447 0 28.3705C3.00213 30.7415 6.49625 31.9995 10.0634 31.9937" fill="#003B65"/>
</svg>
