<svg xmlns="http://www.w3.org/2000/svg" width="100" height="100" viewBox="0 0 100 100"><g transform="translate(-100 -6240)"><g transform="translate(0 1740)"><rect width="100" height="100" rx="50" transform="translate(100 4500)" fill="#efefef"/></g><g transform="translate(69.87 6210.27)"><path d="M77.144,150.027a23.013,23.013,0,1,1,0-46.027,1.963,1.963,0,0,1,1.963,1.963V125.05H98.195a1.963,1.963,0,0,1,1.963,1.963A23.038,23.038,0,0,1,77.144,150.027Zm-1.963-42.005a19.09,19.09,0,1,0,20.95,20.954H77.144a1.963,1.963,0,0,1-1.963-1.963Z" transform="translate(0 -43.692)"/><path d="M284.771,79.234H263.193a1.963,1.963,0,0,1-1.963-1.963V55.693a1.963,1.963,0,0,1,1.963-1.963,23.568,23.568,0,0,1,23.541,23.541,1.963,1.963,0,0,1-1.963,1.963Zm-19.616-3.926h17.556a19.65,19.65,0,0,0-17.556-17.555Z" transform="translate(-179.999 0)"/></g></g></svg>