<svg xmlns="http://www.w3.org/2000/svg" width="1299.033" height="1299.032" viewBox="0 0 1299.033 1299.032"><path d="M688.044,1269.419a3,3,0,0,1,3-3h36.13a3,3,0,0,1,3,3v26.8c-13.936,1.581-27.943,2.716-42.132,3.4ZM571.165,1294.9v-25.479a3,3,0,0,1,3-3h38.849a3,3,0,0,1,3,3v29.76Q593.376,1297.8,571.165,1294.9Zm229.681-25.479a3,3,0,0,1,3-3h40.208a3,3,0,0,1,3,3v2.491q-22.768,6.982-46.208,12.319Zm-342.483.366v-.366a3,3,0,0,1,3-3h38.849a3,3,0,0,1,3,3v12.9Q480.464,1276.839,458.363,1269.785Zm459.644-78.114a3,3,0,0,1-3-3v-38.849a3,3,0,0,1,3-3h38.849a3,3,0,0,1,3,3v38.849a3,3,0,0,1-3,3Zm-114.161,0a3,3,0,0,1-3-3v-38.849a3,3,0,0,1,3-3h40.208a3,3,0,0,1,3,3v38.849a3,3,0,0,1-3,3Zm-112.8,0a3,3,0,0,1-3-3v-38.849a3,3,0,0,1,3-3h36.13a3,3,0,0,1,3,3v38.849a3,3,0,0,1-3,3Zm-116.879,0a3,3,0,0,1-3-3v-38.849a3,3,0,0,1,3-3h38.849a3,3,0,0,1,3,3v38.849a3,3,0,0,1-3,3Zm-112.8,0a3,3,0,0,1-3-3v-38.849a3,3,0,0,1,3-3h38.849a3,3,0,0,1,3,3v38.849a3,3,0,0,1-3,3Zm-116.879,0a3,3,0,0,1-3-3v-38.849a3,3,0,0,1,3-3h38.849a3,3,0,0,1,3,3v38.849a3,3,0,0,1-3,3Zm687.4-41.849a3,3,0,0,1,3-3h38.849a2.985,2.985,0,0,1,1.574.446q-20.974,17.7-43.423,33.629Zm-795.511-3h27.361a3,3,0,0,1,3,3v21.171Q251.191,1159.354,236.375,1146.821Zm798.51-67.954a3,3,0,0,1-3-3v-38.849a3,3,0,0,1,3-3h38.849a3,3,0,0,1,3,3v38.849a3,3,0,0,1-3,3Zm-116.879,0a3,3,0,0,1-3-3v-38.849a3,3,0,0,1,3-3h38.849a3,3,0,0,1,3,3v38.849a3,3,0,0,1-3,3Zm-114.161,0a3,3,0,0,1-3-3v-38.849a3,3,0,0,1,3-3h40.208a3,3,0,0,1,3,3v38.849a3,3,0,0,1-3,3Zm-112.8,0a3,3,0,0,1-3-3v-38.849a3,3,0,0,1,3-3h36.13a3,3,0,0,1,3,3v38.849a3,3,0,0,1-3,3Zm-116.879,0a3,3,0,0,1-3-3v-38.849a3,3,0,0,1,3-3h38.849a3,3,0,0,1,3,3v38.849a3,3,0,0,1-3,3Zm-112.8,0a3,3,0,0,1-3-3v-38.849a3,3,0,0,1,3-3h38.849a3,3,0,0,1,3,3v38.849a3,3,0,0,1-3,3Zm-116.879,0a3,3,0,0,1-3-3v-38.849a3,3,0,0,1,3-3h38.849a3,3,0,0,1,3,3v38.849a3,3,0,0,1-3,3Zm-114.161,0a3,3,0,0,1-3-3v-38.849a3,3,0,0,1,3-3h33.413a3,3,0,0,1,3,3v38.849a3,3,0,0,1-3,3Zm914.366-3v-38.849a3,3,0,0,1,3-3h33.352q-16.714,22.814-35.338,44.1A2.992,2.992,0,0,1,1144.688,1075.868ZM131.172,1034.019h18.4a3,3,0,0,1,3,3v24.631Q141.506,1048.124,131.172,1034.019Zm1016.516-72.03a3,3,0,0,1-3-3V920.14a3,3,0,0,1,3-3h38.849a3,3,0,0,1,3,3v38.849a3,3,0,0,1-3,3Zm-112.8,0a3,3,0,0,1-3-3V920.14a3,3,0,0,1,3-3h38.849a3,3,0,0,1,3,3v38.849a3,3,0,0,1-3,3Zm-116.879,0a3,3,0,0,1-3-3V920.14a3,3,0,0,1,3-3h38.849a3,3,0,0,1,3,3v38.849a3,3,0,0,1-3,3Zm-114.161,0a3,3,0,0,1-3-3V920.14a3,3,0,0,1,3-3h40.208a3,3,0,0,1,3,3v38.849a3,3,0,0,1-3,3Zm-112.8,0a3,3,0,0,1-3-3V920.14a3,3,0,0,1,3-3h36.13a3,3,0,0,1,3,3v38.849a3,3,0,0,1-3,3Zm-116.879,0a3,3,0,0,1-3-3V920.14a3,3,0,0,1,3-3h38.849a3,3,0,0,1,3,3v38.849a3,3,0,0,1-3,3Zm-112.8,0a3,3,0,0,1-3-3V920.14a3,3,0,0,1,3-3h38.849a3,3,0,0,1,3,3v38.849a3,3,0,0,1-3,3Zm-116.879,0a3,3,0,0,1-3-3V920.14a3,3,0,0,1,3-3h38.849a3,3,0,0,1,3,3v38.849a3,3,0,0,1-3,3Zm-114.161,0a3,3,0,0,1-3-3V920.14a3,3,0,0,1,3-3h33.413a3,3,0,0,1,3,3v38.849a3,3,0,0,1-3,3Zm-112.8,0a3,3,0,0,1-3-3V920.14a3,3,0,0,1,3-3h32.053a3,3,0,0,1,3,3v38.849a3,3,0,0,1-3,3Zm1149.764-112.8a3,3,0,0,1-3-3V805.979a3,3,0,0,1,3-3h21.056q-5.651,23.453-12.97,46.208Zm-119.6,0a3,3,0,0,1-3-3V805.979a3,3,0,0,1,3-3h38.849a3,3,0,0,1,3,3v40.208a3,3,0,0,1-3,3Zm-112.8,0a3,3,0,0,1-3-3V805.979a3,3,0,0,1,3-3h38.849a3,3,0,0,1,3,3v40.208a3,3,0,0,1-3,3Zm-116.879,0a3,3,0,0,1-3-3V805.979a3,3,0,0,1,3-3h38.849a3,3,0,0,1,3,3v40.208a3,3,0,0,1-3,3Zm-114.161,0a3,3,0,0,1-3-3V805.979a3,3,0,0,1,3-3h40.208a3,3,0,0,1,3,3v40.208a3,3,0,0,1-3,3Zm-112.8,0a3,3,0,0,1-3-3V805.979a3,3,0,0,1,3-3h36.13a3,3,0,0,1,3,3v40.208a3,3,0,0,1-3,3Zm-116.879,0a3,3,0,0,1-3-3V805.979a3,3,0,0,1,3-3h38.849a3,3,0,0,1,3,3v40.208a3,3,0,0,1-3,3Zm-112.8,0a3,3,0,0,1-3-3V805.979a3,3,0,0,1,3-3h38.849a3,3,0,0,1,3,3v40.208a3,3,0,0,1-3,3Zm-116.879,0a3,3,0,0,1-3-3V805.979a3,3,0,0,1,3-3h38.849a3,3,0,0,1,3,3v40.208a3,3,0,0,1-3,3Zm-114.161,0a3,3,0,0,1-3-3V805.979a3,3,0,0,1,3-3h33.413a3,3,0,0,1,3,3v40.208a3,3,0,0,1-3,3Zm-112.8,0a3,3,0,0,1-3-3V805.979a3,3,0,0,1,3-3h32.053a3,3,0,0,1,3,3v40.208a3,3,0,0,1-3,3Zm-80.68,0q-7.311-22.758-12.97-46.208h15.62a3,3,0,0,1,3,3v40.208a3,3,0,0,1-3,3ZM1267.286,732.308a3,3,0,0,1-3-3v-36.13a3,3,0,0,1,3-3h36.13a2.986,2.986,0,0,1,1.75.564q-1.294,20.981-3.9,41.568Zm-119.6,0a3,3,0,0,1-3-3v-36.13a3,3,0,0,1,3-3h38.849a3,3,0,0,1,3,3v36.13a3,3,0,0,1-3,3Zm-112.8,0a3,3,0,0,1-3-3v-36.13a3,3,0,0,1,3-3h38.849a3,3,0,0,1,3,3v36.13a3,3,0,0,1-3,3Zm-116.879,0a3,3,0,0,1-3-3v-36.13a3,3,0,0,1,3-3h38.849a3,3,0,0,1,3,3v36.13a3,3,0,0,1-3,3Zm-114.161,0a3,3,0,0,1-3-3v-36.13a3,3,0,0,1,3-3h40.208a3,3,0,0,1,3,3v36.13a3,3,0,0,1-3,3Zm-112.8,0a3,3,0,0,1-3-3v-36.13a3,3,0,0,1,3-3h36.13a3,3,0,0,1,3,3v36.13a3,3,0,0,1-3,3Zm-116.879,0a3,3,0,0,1-3-3v-36.13a3,3,0,0,1,3-3h38.849a3,3,0,0,1,3,3v36.13a3,3,0,0,1-3,3Zm-112.8,0a3,3,0,0,1-3-3v-36.13a3,3,0,0,1,3-3h38.849a3,3,0,0,1,3,3v36.13a3,3,0,0,1-3,3Zm-116.879,0a3,3,0,0,1-3-3v-36.13a3,3,0,0,1,3-3h38.849a3,3,0,0,1,3,3v36.13a3,3,0,0,1-3,3Zm-114.161,0a3,3,0,0,1-3-3v-36.13a3,3,0,0,1,3-3h33.413a3,3,0,0,1,3,3v36.13a3,3,0,0,1-3,3Zm-112.8,0a3,3,0,0,1-3-3v-36.13a3,3,0,0,1,3-3h32.053a3,3,0,0,1,3,3v36.13a3,3,0,0,1-3,3Zm-106.577,0q-2.636-20.888-3.933-42.132H39.491a3,3,0,0,1,3,3v36.13a3,3,0,0,1-3,3ZM1267.286,618.147a3,3,0,0,1-3-3V576.3a3,3,0,0,1,3-3h34.645q2.557,21.738,3.669,43.906a2.991,2.991,0,0,1-2.184.943Zm-119.6,0a3,3,0,0,1-3-3V576.3a3,3,0,0,1,3-3h38.849a3,3,0,0,1,3,3v38.849a3,3,0,0,1-3,3Zm-112.8,0a3,3,0,0,1-3-3V576.3a3,3,0,0,1,3-3h38.849a3,3,0,0,1,3,3v38.849a3,3,0,0,1-3,3Zm-116.879,0a3,3,0,0,1-3-3V576.3a3,3,0,0,1,3-3h38.849a3,3,0,0,1,3,3v38.849a3,3,0,0,1-3,3Zm-114.161,0a3,3,0,0,1-3-3V576.3a3,3,0,0,1,3-3h40.208a3,3,0,0,1,3,3v38.849a3,3,0,0,1-3,3Zm-112.8,0a3,3,0,0,1-3-3V576.3a3,3,0,0,1,3-3h36.13a3,3,0,0,1,3,3v38.849a3,3,0,0,1-3,3Zm-116.879,0a3,3,0,0,1-3-3V576.3a3,3,0,0,1,3-3h38.849a3,3,0,0,1,3,3v38.849a3,3,0,0,1-3,3Zm-112.8,0a3,3,0,0,1-3-3V576.3a3,3,0,0,1,3-3h38.849a3,3,0,0,1,3,3v38.849a3,3,0,0,1-3,3Zm-116.879,0a3,3,0,0,1-3-3V576.3a3,3,0,0,1,3-3h38.849a3,3,0,0,1,3,3v38.849a3,3,0,0,1-3,3Zm-114.161,0a3,3,0,0,1-3-3V576.3a3,3,0,0,1,3-3h33.413a3,3,0,0,1,3,3v38.849a3,3,0,0,1-3,3Zm-112.8,0a3,3,0,0,1-3-3V576.3a3,3,0,0,1,3-3h32.053a3,3,0,0,1,3,3v38.849a3,3,0,0,1-3,3Zm-110.955,0c.73-15.076,1.976-30.059,3.715-44.849H39.491a3,3,0,0,1,3,3v38.849a3,3,0,0,1-3,3Zm1260.719-112.8a3,3,0,0,1-3-3V463.5a3,3,0,0,1,3-3h11.061q6.736,22.13,11.9,44.85Zm-119.6,0a3,3,0,0,1-3-3V463.5a3,3,0,0,1,3-3h38.849a3,3,0,0,1,3,3v38.849a3,3,0,0,1-3,3Zm-112.8,0a3,3,0,0,1-3-3V463.5a3,3,0,0,1,3-3h38.849a3,3,0,0,1,3,3v38.849a3,3,0,0,1-3,3Zm-116.879,0a3,3,0,0,1-3-3V463.5a3,3,0,0,1,3-3h38.849a3,3,0,0,1,3,3v38.849a3,3,0,0,1-3,3Zm-114.161,0a3,3,0,0,1-3-3V463.5a3,3,0,0,1,3-3h40.208a3,3,0,0,1,3,3v38.849a3,3,0,0,1-3,3Zm-112.8,0a3,3,0,0,1-3-3V463.5a3,3,0,0,1,3-3h36.13a3,3,0,0,1,3,3v38.849a3,3,0,0,1-3,3Zm-116.879,0a3,3,0,0,1-3-3V463.5a3,3,0,0,1,3-3h38.849a3,3,0,0,1,3,3v38.849a3,3,0,0,1-3,3Zm-112.8,0a3,3,0,0,1-3-3V463.5a3,3,0,0,1,3-3h38.849a3,3,0,0,1,3,3v38.849a3,3,0,0,1-3,3Zm-116.879,0a3,3,0,0,1-3-3V463.5a3,3,0,0,1,3-3h38.849a3,3,0,0,1,3,3v38.849a3,3,0,0,1-3,3Zm-114.161,0a3,3,0,0,1-3-3V463.5a3,3,0,0,1,3-3h33.413a3,3,0,0,1,3,3v38.849a3,3,0,0,1-3,3Zm-112.8,0a3,3,0,0,1-3-3V463.5a3,3,0,0,1,3-3h32.053a3,3,0,0,1,3,3v38.849a3,3,0,0,1-3,3Zm-95.559,0q5.174-22.767,11.9-44.85h5.625a3,3,0,0,1,3,3v38.849a3,3,0,0,1-3,3ZM1147.688,388.466a3,3,0,0,1-3-3V346.617a3,3,0,0,1,3-3h38.849a3,3,0,0,1,3,3v38.849a3,3,0,0,1-3,3Zm-112.8,0a3,3,0,0,1-3-3V346.617a3,3,0,0,1,3-3h38.849a3,3,0,0,1,3,3v38.849a3,3,0,0,1-3,3Zm-116.879,0a3,3,0,0,1-3-3V346.617a3,3,0,0,1,3-3h38.849a3,3,0,0,1,3,3v38.849a3,3,0,0,1-3,3Zm-114.161,0a3,3,0,0,1-3-3V346.617a3,3,0,0,1,3-3h40.208a3,3,0,0,1,3,3v38.849a3,3,0,0,1-3,3Zm-112.8,0a3,3,0,0,1-3-3V346.617a3,3,0,0,1,3-3h36.13a3,3,0,0,1,3,3v38.849a3,3,0,0,1-3,3Zm-116.879,0a3,3,0,0,1-3-3V346.617a3,3,0,0,1,3-3h38.849a3,3,0,0,1,3,3v38.849a3,3,0,0,1-3,3Zm-112.8,0a3,3,0,0,1-3-3V346.617a3,3,0,0,1,3-3h38.849a3,3,0,0,1,3,3v38.849a3,3,0,0,1-3,3Zm-116.879,0a3,3,0,0,1-3-3V346.617a3,3,0,0,1,3-3h38.849a3,3,0,0,1,3,3v38.849a3,3,0,0,1-3,3Zm-114.161,0a3,3,0,0,1-3-3V346.617a3,3,0,0,1,3-3h33.413a3,3,0,0,1,3,3v38.849a3,3,0,0,1-3,3Zm-112.8,0a3,3,0,0,1-3-3V346.617a3,3,0,0,1,3-3h32.053a3,3,0,0,1,3,3v38.849a3,3,0,0,1-3,3Zm1030.167-119.6a3,3,0,0,1-3-3V232.456a3,3,0,0,1,3-3h4.394q16.2,19.085,30.939,39.413Zm-112.8,0a3,3,0,0,1-3-3V232.456a3,3,0,0,1,3-3h38.849a3,3,0,0,1,3,3v33.413a3,3,0,0,1-3,3Zm-116.879,0a3,3,0,0,1-3-3V232.456a3,3,0,0,1,3-3h38.849a3,3,0,0,1,3,3v33.413a3,3,0,0,1-3,3Zm-114.161,0a3,3,0,0,1-3-3V232.456a3,3,0,0,1,3-3h40.208a3,3,0,0,1,3,3v33.413a3,3,0,0,1-3,3Zm-112.8,0a3,3,0,0,1-3-3V232.456a3,3,0,0,1,3-3h36.13a3,3,0,0,1,3,3v33.413a3,3,0,0,1-3,3Zm-116.879,0a3,3,0,0,1-3-3V232.456a3,3,0,0,1,3-3h38.849a3,3,0,0,1,3,3v33.413a3,3,0,0,1-3,3Zm-112.8,0a3,3,0,0,1-3-3V232.456a3,3,0,0,1,3-3h38.849a3,3,0,0,1,3,3v33.413a3,3,0,0,1-3,3Zm-116.879,0a3,3,0,0,1-3-3V232.456a3,3,0,0,1,3-3h38.849a3,3,0,0,1,3,3v33.413a3,3,0,0,1-3,3Zm-114.161,0a3,3,0,0,1-3-3V232.456a3,3,0,0,1,3-3h33.413a3,3,0,0,1,3,3v33.413a3,3,0,0,1-3,3Zm-101.131,0q11.257-15.533,23.383-30.348v27.349a3,3,0,0,1-3,3Zm905.694-114.161a3,3,0,0,1-3-3V119.654a3.029,3.029,0,0,1,.022-.365q22.829,16.193,44.184,34.275a2.994,2.994,0,0,1-2.357,1.144Zm-116.879,0a3,3,0,0,1-3-3V119.654a3,3,0,0,1,3-3h38.849a3,3,0,0,1,3,3v32.054a3,3,0,0,1-3,3Zm-114.161,0a3,3,0,0,1-3-3V119.654a3,3,0,0,1,3-3h40.208a3,3,0,0,1,3,3v32.054a3,3,0,0,1-3,3Zm-112.8,0a3,3,0,0,1-3-3V119.654a3,3,0,0,1,3-3h36.13a3,3,0,0,1,3,3v32.054a3,3,0,0,1-3,3Zm-116.879,0a3,3,0,0,1-3-3V119.654a3,3,0,0,1,3-3h38.849a3,3,0,0,1,3,3v32.054a3,3,0,0,1-3,3Zm-112.8,0a3,3,0,0,1-3-3V119.654a3,3,0,0,1,3-3h38.849a3,3,0,0,1,3,3v32.054a3,3,0,0,1-3,3Zm-116.879,0a3,3,0,0,1-3-3V119.654a3,3,0,0,1,3-3h38.849a3,3,0,0,1,3,3v32.054a3,3,0,0,1-3,3Zm-109.711,0q15.556-13.243,31.963-25.53v22.53a3,3,0,0,1-3,3ZM803.846,44.624a3,3,0,0,1-3-3V15.941q23.443,5.327,46.208,12.319V41.624a3,3,0,0,1-3,3Zm-112.8,0a3,3,0,0,1-3-3V2.775a2.991,2.991,0,0,1,.943-2.183q20.787,1.035,41.189,3.355V41.624a3,3,0,0,1-3,3Zm-116.879,0a3,3,0,0,1-3-3V5.272q21.909-2.857,44.286-4.247a2.986,2.986,0,0,1,.563,1.75V41.624a3,3,0,0,1-3,3Zm-112.8,0a3,3,0,0,1-3-3V30.385q22.1-7.044,44.85-12.535V41.624a3,3,0,0,1-3,3Z" transform="translate(-6.567 -0.592)" fill="#ffbf00" opacity="0.15"/></svg>