<svg xmlns="http://www.w3.org/2000/svg" width="100" height="100" viewBox="0 0 100 100"><g transform="translate(-1013 -6340)"><g transform="translate(0 1740)"><path d="M50,0h0a50,50,0,0,1,50,50v0a50,50,0,0,1-50,50H0a0,0,0,0,1,0,0V50A50,50,0,0,1,50,0Z" transform="translate(1013 4600)" fill="#efefef"/></g><g transform="translate(1036 6363)"><path d="M20.461,30.923A10.461,10.461,0,1,1,30.923,20.461,10.461,10.461,0,0,1,20.461,30.923Zm0-17.435a6.974,6.974,0,1,0,6.974,6.974A6.974,6.974,0,0,0,20.461,13.487Z" transform="translate(6.692 6.692)" fill="#63593d"/><path d="M31.41,37.7H13.974A6.974,6.974,0,0,1,7,30.729V26.283a1.744,1.744,0,0,1,1.1-1.6l6.347-2.546a1.744,1.744,0,1,1,1.273,3.243l-5.231,2.092v3.26a3.487,3.487,0,0,0,3.487,3.487H31.41A3.487,3.487,0,0,0,34.9,30.729v-3.26l-5.231-2.092a1.745,1.745,0,1,1,1.29-3.243L37.3,24.679a1.744,1.744,0,0,1,1.1,1.6v4.446A6.974,6.974,0,0,1,31.41,37.7Z" transform="translate(4.461 15.603)" fill="#63593d"/><path d="M12.718,18.435a8.718,8.718,0,1,1,8.718-8.718A8.718,8.718,0,0,1,12.718,18.435Zm0-13.948a5.231,5.231,0,1,0,5.231,5.231A5.231,5.231,0,0,0,12.718,4.487Z" transform="translate(2.231)" fill="#63593d"/><path d="M13.2,25.339H7.974A6.974,6.974,0,0,1,1,18.365V15.314a1.744,1.744,0,0,1,1.1-1.622L7.66,11.513a1.726,1.726,0,1,1,1.273,3.208L4.487,16.5v1.866a3.487,3.487,0,0,0,3.487,3.487H13.2a1.744,1.744,0,0,1,0,3.487Z" transform="translate(0 7.725)" fill="#63593d"/><path d="M26.718,18.435a8.718,8.718,0,1,1,8.718-8.718A8.718,8.718,0,0,1,26.718,18.435Zm0-13.948a5.231,5.231,0,1,0,5.231,5.231A5.231,5.231,0,0,0,26.718,4.487Z" transform="translate(12.64)" fill="#63593d"/><path d="M29.974,25.343H24.744a1.744,1.744,0,0,1,0-3.487h5.231a3.487,3.487,0,0,0,3.487-3.487V16.5L29.015,14.76a1.75,1.75,0,0,1,1.273-3.26l5.562,2.179a1.744,1.744,0,0,1,1.1,1.622v3.051a6.974,6.974,0,0,1-6.974,6.992Z" transform="translate(16.358 7.72)" fill="#63593d"/></g></g></svg>