<svg xmlns="http://www.w3.org/2000/svg" width="100" height="100" viewBox="0 0 100 100"><g transform="translate(-1013 -5862)"><g transform="translate(0 1740)"><rect width="100" height="100" rx="50" transform="translate(1013 4122)" fill="#efefef"/></g><g transform="translate(1037 5886)"><path d="M319.688,312.8a4.388,4.388,0,1,0,4.388,4.388A4.388,4.388,0,0,0,319.688,312.8Zm0,5.541a1.153,1.153,0,1,1,1.153-1.153A1.155,1.155,0,0,1,319.688,318.341Z" transform="translate(-278.206 -276)"/><path d="M195.088,367.4a4.388,4.388,0,1,0,4.388,4.388A4.388,4.388,0,0,0,195.088,367.4Zm0,5.553a1.153,1.153,0,1,1,1.153-1.153A1.155,1.155,0,0,1,195.088,372.953Z" transform="translate(-168.265 -324.176)"/><path d="M71.4,320.2a4.388,4.388,0,1,0,4.376,4.388A4.406,4.406,0,0,0,71.4,320.2Zm0,5.553a1.153,1.153,0,1,1,1.153-1.153A1.155,1.155,0,0,1,71.4,325.753Z" transform="translate(-59.118 -282.529)"/><path d="M4.388,218.4a4.394,4.394,0,1,0,4.388,4.4A4.4,4.4,0,0,0,4.388,218.4Zm0,5.553A1.153,1.153,0,1,1,5.541,222.8,1.155,1.155,0,0,1,4.388,223.953Z" transform="translate(0 -192.706)"/><path d="M45.929,0A23.77,23.77,0,0,0,29.224,6.882L25.635,4.824A3.088,3.088,0,0,0,21,7.494l.624,9.482a3.109,3.109,0,0,0,3.082,3.035,3.1,3.1,0,0,0,1.459-.376l8.824-3.906.153-.071a3.095,3.095,0,0,0,0-5.353l-3.118-1.8A20.618,20.618,0,0,1,64.306,33.059l2.776,1.412a23.458,23.458,0,0,0,2.565-10.741A23.741,23.741,0,0,0,45.929,0ZM24.847,16.824l-.106.047-.612-9.329,9.412,5.435Z" transform="translate(-18.529)"/></g></g></svg>