<svg xmlns="http://www.w3.org/2000/svg" width="100" height="100" viewBox="0 0 100 100"><g transform="translate(-100 -5762)"><path d="M50,0h0a50,50,0,0,1,50,50v0a50,50,0,0,1-50,50H0a0,0,0,0,1,0,0V50A50,50,0,0,1,50,0Z" transform="translate(100 5762)" fill="#efefef"/><g transform="translate(115.2 5776.6)"><g transform="translate(10.8 4.4)"><path d="M33.692,11.7a15.7,15.7,0,0,0-11.1,4.6h0a15.694,15.694,0,1,0,11.1-4.6Zm9.527,25.219a13.494,13.494,0,0,1-9.527,3.923,13.69,13.69,0,0,1-9.527-3.923,13.494,13.494,0,0,1-3.923-9.527,13.69,13.69,0,0,1,3.923-9.527,13.494,13.494,0,0,1,9.527-3.923,13.69,13.69,0,0,1,9.527,3.923,13.494,13.494,0,0,1,3.923,9.527A13.69,13.69,0,0,1,43.219,36.919Z" transform="translate(-9.93 -3.518)"/><path d="M30.294,27.239l-4.147-4.147-.785.785L22,27.463l8.406,8.406,13.9-13.9L39.933,17.6Zm.112,5.492-5.268-5.268,1.121-1.233,4.147,4.147,9.639-9.639,1.233,1.233Z" transform="translate(-9.447 -2.805)"/><path d="M58.436,25.584a7.4,7.4,0,0,0-.56-1.681c-.448-.673-1.009-1.233-1.345-1.793a3.977,3.977,0,0,1-.9-1.345,2.488,2.488,0,0,1-.112-1.009V17.962a5.659,5.659,0,0,0-.56-2.578,4.3,4.3,0,0,0-1.233-1.233,16.931,16.931,0,0,0-2.018-1.009,4.71,4.71,0,0,1-1.345-.785,9.909,9.909,0,0,1-1.121-2.018L48.572,9a4.3,4.3,0,0,0-1.233-1.233,5.038,5.038,0,0,0-2.578-.448H42.968A2.488,2.488,0,0,1,41.959,7.2a5.241,5.241,0,0,1-1.793-1.345,4.977,4.977,0,0,0-1.233-.9,2.753,2.753,0,0,0-1.681-.56h-.336a3.58,3.58,0,0,0-1.569.336,7.523,7.523,0,0,0-1.905.9,5.753,5.753,0,0,1-1.345.56h-.224a5.532,5.532,0,0,1-1.681-.336,7.327,7.327,0,0,0-2.354-.448,2.628,2.628,0,0,0-1.233.224,4.607,4.607,0,0,0-1.457.9A9.355,9.355,0,0,0,23.8,8.323c-.448.56-.785,1.009-1.121,1.121a1.62,1.62,0,0,1-.785.224c-.56.112-1.233.224-2.018.448a4.722,4.722,0,0,0-2.242,1.121,5.133,5.133,0,0,0-.9,1.457,19.792,19.792,0,0,0-.448,2.242,3.167,3.167,0,0,1-.448,1.457,5.736,5.736,0,0,1-1.681,1.457c-.336.336-.785.56-1.233,1.009a3.218,3.218,0,0,0-.9,1.457,4.767,4.767,0,0,0-.224,1.233,7.327,7.327,0,0,0,.448,2.354,6.229,6.229,0,0,1,.336,1.681v.224a4.845,4.845,0,0,1-.785,1.905,15.01,15.01,0,0,0-.673,1.345,3.58,3.58,0,0,0-.336,1.569v.336a7.4,7.4,0,0,0,.56,1.681c.448.673,1.009,1.233,1.345,1.793a3.978,3.978,0,0,1,.9,1.345,2.488,2.488,0,0,1,.112,1.009v1.793a5.659,5.659,0,0,0,.56,2.578A4.3,4.3,0,0,0,15.508,42.4a16.932,16.932,0,0,0,2.018,1.009,4.71,4.71,0,0,1,1.345.785,9.909,9.909,0,0,1,1.121,2.018l.673,1.345A4.3,4.3,0,0,0,21.9,48.785c.112.112.336.112.448.224L17.637,63.02l7.4-2.354,4.483,6.389L34.674,51.7a.11.11,0,0,0,.112-.112l5.156,15.356,4.483-6.389,7.4,2.354L46.555,47.216l.112-.112a3.794,3.794,0,0,1,.9-.336c.56-.112,1.233-.224,2.018-.448A4.722,4.722,0,0,0,51.823,45.2a5.133,5.133,0,0,0,.9-1.457,19.793,19.793,0,0,0,.448-2.242,3.167,3.167,0,0,1,.448-1.457A5.736,5.736,0,0,1,55.3,38.586c.336-.336.785-.56,1.233-1.009a3.218,3.218,0,0,0,.9-1.457,4.767,4.767,0,0,0,.224-1.233,7.327,7.327,0,0,0-.448-2.354,6.229,6.229,0,0,1-.336-1.681v-.224a4.845,4.845,0,0,1,.785-1.905,15.009,15.009,0,0,0,.673-1.345,3.58,3.58,0,0,0,.336-1.569A.241.241,0,0,1,58.436,25.584ZM28.621,62.011l-2.8-4.035-4.708,1.457,3.475-10.2h1.681a2.488,2.488,0,0,1,1.009.112,5.241,5.241,0,0,1,1.793,1.345,4.977,4.977,0,0,0,1.233.9,2.753,2.753,0,0,0,1.681.56h0ZM43.3,57.976l-2.8,4.035L36.691,50.579c.112,0,.336-.112.448-.112h.224a5.532,5.532,0,0,1,1.681.336,7.327,7.327,0,0,0,2.354.448,2.628,2.628,0,0,0,1.233-.224,4.607,4.607,0,0,0,1.457-.9c.224-.224.448-.56.673-.785l3.363,10.2ZM56.082,26.7c-.224.448-.448,1.009-.785,1.681a6.939,6.939,0,0,0-.785,2.13v.448a7.327,7.327,0,0,0,.448,2.354A6.229,6.229,0,0,1,55.3,35c0,.224,0,.336-.112.448a1.968,1.968,0,0,1-.448.56,8.224,8.224,0,0,1-1.457,1.121A5.989,5.989,0,0,0,51.6,38.81a3.916,3.916,0,0,0-.56,1.457c-.224.785-.224,1.457-.448,2.018a2.53,2.53,0,0,1-.56,1.233,1.825,1.825,0,0,1-.673.336c-.448.224-1.121.224-1.793.448a6.728,6.728,0,0,0-2.242.785,9.811,9.811,0,0,0-2.13,2.242,6.407,6.407,0,0,1-.785.9c-.224.224-.448.336-.56.448-.112,0-.224.112-.448.112a5.532,5.532,0,0,1-1.681-.336A7.327,7.327,0,0,0,37.364,48h-.448a7.013,7.013,0,0,0-2.8,1.121,8.132,8.132,0,0,0-1.009.56,2.851,2.851,0,0,1-.785.224h-.112a1.593,1.593,0,0,1-.673-.224,6.532,6.532,0,0,1-1.457-1.233,6.1,6.1,0,0,0-2.018-1.233,5.243,5.243,0,0,0-1.793-.224,9.5,9.5,0,0,1-1.793,0,3.219,3.219,0,0,1-1.345-.224,1.213,1.213,0,0,1-.448-.56,12.04,12.04,0,0,1-.785-1.681,7.509,7.509,0,0,0-1.233-2.018,9.777,9.777,0,0,0-2.69-1.569,4.032,4.032,0,0,1-1.009-.56c-.224-.224-.448-.336-.56-.448a3.219,3.219,0,0,1-.224-1.345V36.792A5.243,5.243,0,0,0,15.956,35a7.529,7.529,0,0,0-1.793-2.578,3.674,3.674,0,0,1-.673-.9,1.107,1.107,0,0,1-.224-.673V30.74a1.209,1.209,0,0,1,.224-.785c.224-.448.448-1.009.785-1.681a6.939,6.939,0,0,0,.785-2.13V25.7a7.327,7.327,0,0,0-.448-2.354,6.229,6.229,0,0,1-.336-1.681c0-.224,0-.336.112-.448a1.968,1.968,0,0,1,.448-.56,8.224,8.224,0,0,1,1.457-1.121,5.989,5.989,0,0,0,1.681-1.681,3.916,3.916,0,0,0,.56-1.457c.224-.785.224-1.457.448-2.018a2.53,2.53,0,0,1,.56-1.233h0a1.825,1.825,0,0,1,.673-.336c.448-.224,1.121-.224,1.793-.448a6.728,6.728,0,0,0,2.242-.785,9.811,9.811,0,0,0,2.13-2.242,6.407,6.407,0,0,1,.785-.9c.224-.224.448-.336.56-.448.112,0,.224-.112.448-.112a5.532,5.532,0,0,1,1.681.336,7.327,7.327,0,0,0,2.354.448h.448a7.013,7.013,0,0,0,2.8-1.121,8.132,8.132,0,0,0,1.009-.56,2.851,2.851,0,0,1,.785-.224h.112a1.593,1.593,0,0,1,.673.224,6.532,6.532,0,0,1,1.457,1.233,6.1,6.1,0,0,0,2.018,1.233,5.478,5.478,0,0,0,1.457.112,9.5,9.5,0,0,1,1.793,0,3.219,3.219,0,0,1,1.345.224,1.213,1.213,0,0,1,.448.56,12.04,12.04,0,0,1,.785,1.681,7.509,7.509,0,0,0,1.233,2.018,9.777,9.777,0,0,0,2.69,1.569,4.032,4.032,0,0,1,1.009.56c.224.224.448.336.56.448a3.219,3.219,0,0,1,.224,1.345v1.793a5.243,5.243,0,0,0,.224,1.793,7.529,7.529,0,0,0,1.793,2.578,3.674,3.674,0,0,1,.673.9,1.107,1.107,0,0,1,.224.673v.112C56.306,26.144,56.194,26.368,56.082,26.7Z" transform="translate(-10.8 -4.4)"/></g></g></g></svg>